<?xml version="1.0" encoding="utf-8"?>
<!-- Generator: Adobe Illustrator 15.1.0, SVG Export Plug-In . SVG Version: 6.00 Build 0)  -->
<!DOCTYPE svg PUBLIC "-//W3C//DTD SVG 1.1//EN" "http://www.w3.org/Graphics/SVG/1.1/DTD/svg11.dtd">
<svg version="1.1" id="Layer_1" xmlns="http://www.w3.org/2000/svg" xmlns:xlink="http://www.w3.org/1999/xlink" x="0px" y="0px"
	 width="200px" height="100px" viewBox="0 0 200 100" enable-background="new 0 0 200 100" xml:space="preserve">
<linearGradient id="SVGID_1_" gradientUnits="userSpaceOnUse" x1="47.4111" y1="-0.5454" x2="52.1132" y2="101.0196">
	<stop  offset="0" style="stop-color:#BFEBFF"/>
	<stop  offset="1" style="stop-color:#3F9BFF"/>
</linearGradient>
<path fill="url(#SVGID_1_)" d="M99.524,74.006C99.524,88.361,87.887,100,73.531,100H25.993C11.638,100,0,88.361,0,74.006V26.469
	C0,12.112,11.638,0.475,25.993,0.475h47.538c14.355,0,25.993,11.638,25.993,25.994V74.006z"/>
<polygon fill="#00539B" points="5.357,61.484 29.195,88.57 30.586,53.15 "/>
<polygon fill="#FFD200" points="35.47,51.771 59.751,41.539 60.969,76.248 "/>
<polygon fill="#00539B" points="63.593,39.977 88.207,27.326 92.222,62.652 "/>
<path fill="none" stroke="#FFFFFF" stroke-width="3" stroke-miterlimit="10" d="M0.046,61.545c0,0,50.396-9.584,99.194-41.897"/>
<text transform="matrix(1 0 0 1 118.4053 55.7344)" fill="#00539B" font-family="'Rockwell'" font-size="25.8117">Events</text>
<text transform="matrix(1 0 0 1 102.9834 55.6543)" fill="#00539B" font-family="'Rockwell'" font-size="25.8109">U</text>
</svg>
